<?xml version="1.0" standalone="no"?>
<!DOCTYPE svg PUBLIC "-//W3C//DTD SVG 20010904//EN"
 "http://www.w3.org/TR/2001/REC-SVG-20010904/DTD/svg10.dtd">
<svg version="1.0" xmlns="http://www.w3.org/2000/svg"
 width="200.000000pt" height="200.000000pt" viewBox="0 0 200.000000 200.000000"
 preserveAspectRatio="xMidYMid meet">
<metadata>
Created by potrace 1.16, written by Peter Selinger 2001-2019
</metadata>
<g transform="translate(0.000000,200.000000) scale(0.100000,-0.100000)"
fill="#000000" stroke="none">
<path d="M926 1565 c-97 -34 -155 -142 -135 -250 5 -25 29 -80 54 -123 39 -69
45 -86 45 -138 0 -75 24 -117 76 -134 47 -16 105 0 133 37 16 20 21 40 21 89
0 58 5 72 49 152 27 48 52 105 56 128 10 67 -12 131 -64 185 -65 67 -147 86
-235 54z m119 -45 c-3 -5 0 -7 8 -5 39 16 127 -92 127 -157 0 -28 -88 -208
-102 -208 -13 0 -9 34 12 95 21 61 19 75 -10 75 -13 0 -24 -16 -39 -62 -12
-34 -21 -72 -21 -85 0 -14 -6 -23 -15 -23 -10 0 -15 10 -15 29 0 49 -40 141
-61 141 -24 0 -25 -36 -4 -87 17 -40 20 -87 6 -78 -15 8 -88 146 -95 178 -15
62 27 142 92 177 38 20 128 28 117 10z"/>
</g>
</svg>
