<?xml version="1.0" standalone="no"?>
<!DOCTYPE svg PUBLIC "-//W3C//DTD SVG 20010904//EN"
 "http://www.w3.org/TR/2001/REC-SVG-20010904/DTD/svg10.dtd">
<svg version="1.0" xmlns="http://www.w3.org/2000/svg"
 width="1000.000000pt" height="1000.000000pt" viewBox="0 0 1000.000000 1000.000000"
 preserveAspectRatio="xMidYMid meet">

<g transform="translate(0.000000,1000.000000) scale(0.100000,-0.100000)"
fill="#000000" stroke="none">
<path d="M4520 9754 c-363 -44 -566 -97 -785 -205 -127 -62 -99 -60 -505 -45
-195 7 -224 6 -311 -12 -149 -31 -205 -81 -224 -198 -14 -88 40 -298 129 -502
77 -179 82 -246 38 -507 -31 -179 -56 -378 -67 -530 -4 -44 -8 -93 -11 -110
-24 -177 -24 -1094 1 -1360 2 -22 6 -94 10 -160 6 -132 8 -157 30 -390 55
-574 112 -907 218 -1276 62 -214 78 -318 76 -496 -3 -315 -46 -491 -192 -793
-92 -190 -150 -334 -192 -475 -24 -80 -32 -94 -66 -120 -75 -56 -362 -381
-540 -611 -269 -347 -341 -483 -342 -649 -1 -104 27 -158 122 -233 l24 -18
-101 -190 c-93 -176 -215 -428 -290 -599 -42 -98 -112 -266 -112 -272 0 -2 9
-3 20 -1 16 2 37 41 96 178 41 96 103 233 137 305 72 150 275 547 286 557 4 4
60 -15 126 -43 292 -123 643 -222 1008 -284 20 -3 37 -9 37 -13 0 -4 -30 -48
-66 -97 -127 -171 -219 -327 -295 -497 l-48 -108 24 0 c14 0 25 5 25 12 0 7
31 75 69 152 73 149 167 300 275 440 35 47 71 106 79 133 11 33 18 109 22 243
3 107 8 215 10 240 2 25 7 81 10 125 18 227 73 561 135 824 35 143 35 141 15
141 -22 0 -30 -22 -68 -191 -89 -390 -145 -861 -147 -1249 0 -52 -4 -101 -9
-109 -8 -12 -33 -10 -163 13 -313 57 -658 159 -931 277 -166 72 -197 93 -227
155 -20 40 -22 56 -17 132 6 99 30 169 97 277 158 258 667 866 804 959 208
143 581 129 936 -36 36 -17 97 -45 135 -63 98 -45 345 -182 467 -258 139 -87
212 -123 332 -162 148 -48 230 -59 413 -52 170 6 271 22 398 63 104 34 143 54
370 192 218 132 567 306 703 351 206 68 419 89 577 56 126 -27 207 -75 319
-189 134 -138 323 -359 470 -549 250 -328 316 -454 316 -606 0 -80 -24 -137
-73 -176 -46 -37 -296 -143 -487 -206 -298 -98 -761 -199 -779 -170 -5 7 -11
93 -15 192 -4 98 -9 189 -11 201 -2 13 -6 68 -9 123 -18 279 -76 654 -142 920
-27 106 -37 126 -55 108 -8 -8 -3 -45 19 -140 70 -295 117 -592 137 -873 3
-47 8 -110 10 -140 2 -30 7 -125 10 -210 9 -217 4 -205 149 -405 77 -106 181
-283 252 -427 42 -87 62 -118 76 -118 10 0 18 4 18 8 0 4 -36 80 -79 167 -78
157 -190 339 -291 472 l-52 68 49 8 c379 60 745 167 1095 321 l37 16 114 -228
c131 -259 283 -579 347 -730 32 -77 48 -102 62 -102 10 0 18 4 18 9 0 29 -197
454 -370 801 -72 144 -128 266 -123 269 4 4 25 20 46 35 20 15 48 48 61 74 73
146 17 340 -172 598 -211 287 -564 701 -678 793 -36 29 -44 45 -76 144 -50
157 -104 290 -202 495 -130 272 -165 414 -173 702 -7 213 5 298 77 560 119
433 160 692 225 1420 9 100 24 333 29 450 3 63 9 175 12 248 9 188 10 656 1
792 -4 63 -10 153 -13 200 -13 207 -58 601 -90 785 -31 178 -22 243 68 466 73
184 109 319 109 420 0 92 -16 136 -64 175 -87 69 -219 91 -482 78 -99 -4 -225
-8 -281 -8 l-100 -1 -120 57 c-198 94 -358 138 -644 179 -136 19 -207 22 -565
25 -307 2 -439 -1 -525 -12z m765 -1644 c159 -43 317 -133 417 -237 153 -160
218 -345 205 -589 -16 -289 -94 -428 -431 -769 -181 -182 -254 -270 -305 -365
-73 -137 -100 -291 -76 -435 8 -49 15 -98 15 -107 0 -17 -18 -18 -229 -18
l-229 0 -30 83 c-46 127 -52 155 -52 248 0 162 48 338 129 478 51 87 167 233
308 389 120 133 173 201 227 288 121 199 93 412 -67 504 -70 40 -166 60 -285
60 -152 0 -267 -44 -407 -155 -38 -30 -69 -54 -70 -52 -1 1 -58 107 -125 235
-71 135 -119 237 -114 242 25 25 186 113 256 140 187 72 305 90 573 86 179 -3
222 -7 290 -26z m-203 -2897 c82 -39 148 -105 191 -193 30 -60 32 -72 32 -165
-1 -81 -5 -111 -24 -158 -32 -81 -115 -168 -199 -209 -62 -31 -73 -33 -172
-33 -93 0 -111 3 -163 27 -83 39 -177 136 -207 213 -20 48 -24 79 -24 155 0
120 24 186 96 265 92 101 176 136 313 132 76 -2 100 -7 157 -34z"/>
</g>
</svg>
