<?xml version="1.0" standalone="no"?>
<!DOCTYPE svg PUBLIC "-//W3C//DTD SVG 20010904//EN"
 "http://www.w3.org/TR/2001/REC-SVG-20010904/DTD/svg10.dtd">
<svg version="1.0" xmlns="http://www.w3.org/2000/svg"
 width="200.000000pt" height="200.000000pt" viewBox="0 0 200.000000 200.000000"
 preserveAspectRatio="xMidYMid meet">
<metadata>
Created by potrace 1.16, written by Peter Selinger 2001-2019
</metadata>
<g transform="translate(0.000000,200.000000) scale(0.100000,-0.100000)"
fill="#000000" stroke="none">
<path d="M878 1503 c-18 -21 -38 -86 -38 -125 0 -21 -5 -28 -20 -28 -32 0
-121 -37 -146 -61 -13 -13 -24 -30 -24 -39 0 -25 41 -59 101 -81 30 -12 57
-26 61 -32 6 -9 10 -9 17 1 6 11 11 11 24 -2 8 -9 23 -16 31 -16 9 0 16 -6 16
-14 0 -8 8 -16 18 -19 11 -2 5 -7 -18 -14 -27 -7 -37 -7 -43 4 -11 17 -27 17
-27 -1 0 -8 -5 -16 -12 -18 -34 -12 104 -244 156 -263 26 -9 32 -6 70 37 24
25 59 78 80 118 31 58 37 78 32 106 -7 34 -19 43 -31 24 -3 -5 -17 -10 -30
-10 -13 0 -27 5 -30 10 -3 6 -1 10 4 10 6 0 11 7 11 16 0 8 4 13 9 9 5 -3 17
2 25 11 9 9 24 13 33 10 9 -4 19 -3 22 1 3 5 32 16 63 26 64 20 118 59 118 86
0 10 -11 27 -24 40 -25 23 -114 61 -145 61 -15 0 -21 10 -26 43 -19 113 -59
150 -115 108 -36 -26 -62 -27 -85 -1 -22 25 -57 26 -77 3z"/>
<path d="M457 747 l-28 -23 3 -140 3 -139 36 -3 c45 -4 99 37 99 74 0 15 6 24
15 24 11 0 15 -11 15 -38 0 -21 5 -43 12 -50 21 -21 74 -14 107 14 l31 26 0
139 0 139 -44 0 c-33 0 -52 -7 -75 -25 l-30 -26 -17 26 c-22 34 -86 35 -127 2z
m126 -32 c9 -19 23 -35 30 -35 7 0 21 16 30 35 15 31 21 35 57 35 l40 0 0
-125 0 -125 -35 0 -35 0 0 70 c0 73 -9 87 -28 45 -15 -33 -45 -32 -63 3 -13
26 -14 24 -17 -45 l-3 -73 -34 0 -35 0 0 125 0 125 38 0 c34 0 40 -4 55 -35z"/>
<path d="M807 747 l-28 -23 3 -140 3 -139 33 -3 c41 -4 101 33 103 63 1 11 5
2 8 -20 5 -37 9 -40 39 -43 23 -2 45 4 68 20 33 22 34 25 34 89 0 37 -5 70
-12 77 -7 7 -11 31 -9 55 4 71 -12 82 -121 85 -85 2 -95 0 -121 -21z m220 -23
c14 -22 15 -31 5 -57 -10 -27 -9 -32 8 -44 16 -11 20 -26 20 -69 l0 -54 -35 0
c-34 0 -35 1 -35 40 l0 40 -40 0 -40 0 0 -40 c0 -39 -1 -40 -35 -40 l-35 0 0
125 0 125 85 0 c80 0 85 -1 102 -26z"/>
<path d="M872 623 c1 -59 3 -87 5 -60 l4 47 53 0 c63 0 84 -14 89 -60 4 -34 4
-34 5 6 1 26 -4 46 -13 54 -8 7 -15 34 -17 63 l-3 52 -62 3 -63 3 2 -108z"/>
<path d="M1293 744 c-39 -30 -43 -70 -13 -119 l20 -33 -20 -35 c-14 -24 -20
-49 -18 -74 3 -37 4 -38 44 -41 32 -2 48 2 72 23 l31 26 3 -23 c5 -36 67 -37
113 -2 29 22 35 33 35 63 0 20 -9 51 -20 69 l-21 34 21 34 c13 21 20 46 18 66
-3 31 -5 33 -47 36 -36 3 -48 -1 -72 -24 l-29 -28 0 27 c0 25 -3 27 -42 27
-31 0 -52 -8 -75 -26z m107 -15 c0 -29 18 -59 35 -59 17 0 35 30 35 59 0 17 6
21 35 21 31 0 35 -3 35 -26 0 -15 -9 -42 -21 -60 l-21 -34 21 -29 c12 -16 21
-45 21 -65 0 -34 -1 -36 -35 -36 -33 0 -35 2 -35 34 0 71 -62 73 -68 2 -3 -36
-4 -37 -40 -34 -35 3 -37 5 -35 37 1 18 11 47 23 63 l21 29 -21 28 c-11 16
-23 43 -26 60 -6 31 -6 31 35 31 35 0 41 -3 41 -21z"/>
<path d="M1107 576 c-26 -21 -28 -28 -25 -77 l3 -54 48 -3 c40 -3 55 2 83 23
31 24 34 30 34 81 l0 54 -57 0 c-45 -1 -64 -6 -86 -24z"/>
</g>
</svg>
